<svg width="64" height="64" viewBox="0 0 160 160" xmlns="http://www.w3.org/2000/svg" fill="#ae8f5b"><title>Logo of Saneef</title><path d="M157.075 131.577c-.815-6.212-2.13-12.358-4.203-18.276-1.88-5.354-4.844-10.705-8.752-14.852-1.027-1.086-3.307-2.62-3.48-4.217-.112-.978.588-2.633.785-3.628a58.42 58.42 0 0 1 .883-3.814c.367-1.38.46-2.962.977-4.278.316-.81 1.503-1.977 2.09-2.67 1.763-2.088 3.427-4.23 4.938-6.503 1.454-2.18 2.708-4.305 3.703-6.69.99-2.362 1.51-4.93 1.997-7.43.465-2.372 1.553-7.174-.674-9-3.867-3.16-7.857 7.47-8.934 9.622-2.76 5.51-4.353 11.326-6.39 17.104-1.064 3.03-1.253 5.84-3.945 7.888-.806.612-1.628 1.383-2.513 2.04-1.16.854-5.292 2.967-6.64 3.735-2.355 1.338-5.388 2.085-5.773-.144-.204-1.16.78-4.015 1.613-4.715 2.628-2.185 3.937-5.426 4.38-7.966.33-1.914-.09-5.258-3.014-5.107-1.78.09-3.416 1.98-4.428 3.134-1.84 2.1-3.49 7.856-3.516 12.243-1.695 1.73-4.015 4.114-7.563 3.152-.17-.55 1.31-2.86 1.82-3.456 1.14-1.352 1.827-2.585 2.23-4.322.61-2.597 1.142-6.665-2.183-7.642-2.617-.774-6.305 3.518-7.446 5.46-1.694 2.884-2.13 6.304-1.61 9.584-1.644 2.133-4.118 1.722-4.405-.946-.244-2.245-.045-4.66-1.955-6.282-2.207-1.87-4.655.56-5.456 2.66-.446 1.164-1.427 1.802-2.032 2.89-.518.936-1.008 2.066-2.034 2.56-.333-2.696-1.41-7.414-5.127-6.475-1.79.456-3.688 2.966-4.835 4.33-1.183 1.414-2.315 3.564-3.78 4.664-1.027-2.937-.364-12.68-5.548-11.92-2.47.36-4.597 5.06-5.474 7.014-.785 1.75-1.61 3.476-2.43 5.216-.44.936-.858 3.188-2.18 3.227-.723-1.155-.385-2.87-.347-4.154.04-1.432.148-2.778.91-4.032.686-1.13 1.684-2.013 2.61-2.94.793-.787 1.113-1.634 1.743-2.493 1.257-1.725 2.713-3.54 3.2-5.74.44-1.99-1.227-4.026-3.34-3.378-1.99.607-3.393 2.99-4.445 4.636-.598.934-1.347 1.847-1.806 2.796-.57 1.172-1.226 2.236-1.69 3.444-.303.79-1.86 5.8-3.553 4.862-1.623-.89-2.934-2.73-4.366-3.908-4.584-3.758-9.317-7.357-13.914-11.11-4.643-3.792-9.644-7.093-13.7-11.555-1.96-2.155-4.368-4.48-5.808-7.025-1.395-2.47-2.387-5.055-3.146-7.787-.86-3.084-.707-6.068-.674-9.25.03-2.777 1.1-5.125 2.46-7.51 2.872-5.026 10.6-11.488 11.825-12.517 1.227-1.03 7.516-5.987 10.52-7.546l7.27-3.997c2.37-1.227 6.192-2.8 7.314-3.267 2.292-.953 7.98-2.224 10.314-2.644 3.22-.575 6.493-.355 7.51 3.157.445 1.538-.727 3.69-1.334 5.05-.848 1.9-1.766 3.895-2.763 5.716-.444.808-2.303 4.26-2.9 5.167-1.276 1.946-9.1 12.91-13.486 17.34-1.504 1.518-7.702 7.556-7.314 9.135 1.8.403 6.112-4.86 7.503-6.205 3.385-3.275 11.47-13.408 13.09-15.714a39.21 39.21 0 0 0 2.353-3.768c.63-1.147 3.583-5.625 4.22-6.96.594-1.244 1.22-2.476 1.793-3.73 1.016-2.232 1.423-5.174.607-7.432C65.202-.093 58.97-.23 55.162.122c-5.788.537-11.48 2.726-16.73 5.13-11.26 5.157-20.92 12.91-29.284 21.91-3.828 4.123-6.345 9.144-6.136 14.875.2 5.578 1.545 11.464 4.307 16.357.806 1.433 5.83 8.052 7.5 9.49 1.052.904 5.534 4.77 6.86 5.792 1.102.847 7.654 6.167 8.588 6.855a181.024 181.024 0 0 1 13.762 11.225c.656.592 2.034 1.883 1.435 2.905-.528.902-1.548 1.503-2.282 2.222-1.702 1.665-7.607 7.066-8.762 7.986-1.1.873-8.438 6.475-9.432 7.41-1.754 1.642-3.81 4.885-2.39 7.265 1.45 2.427 4.363 1.5 6.522.794 1.37-.448 5.952-2.713 7.17-3.388 2.25-1.25 4.165-3.05 6.217-4.543 2.31-1.68 3.764-3.452 5.46-5.712.77-1.03 1.5-1.907 1.958-3.126.45-1.207.748-2.515 1.58-3.535 1.57 1.812 1.602 3.582 4.503 3.342 1.11-.095 3.277-1.68 4.323-3.094 1.317-1.775 2.36-3.912 3.152-5.927.43-1.083 1.014-1.974 1.24-3.14.146-.762.34-1.6 1.156-1.903 1.06 2.71.495 5.67 1.728 8.388.72 1.577 2.152 4.695 4.36 3.954 2.486-.837 3.35-2.388 4.36-4.622.615-1.36 1.715-2.424 2.405-3.738.43-.815.81-1.885 1.772-2.218.504.836.193 1.874.378 2.776.198.952.637 1.96.91 2.905.503 1.767 3.087 2.57 4.64 1.876 1.648-.734 2.73-2.456 3.757-3.853.684-.94.64-2.85 2.04-3.07.687 1.027.653 2.477 1.648 3.3.967.804 2.033 1.812 3.276 2.114 1.353.324 2.71.044 3.965-.495 1.045-.45 2.19-1.442 3.34-1.52 1.207-.066 2.483.62 3.7.72 1.253.105 2.46-.235 3.7-.372 1.924-.215 3.644-1.825 5.46-2.36.8.45.926 1.48 1.638 2.012.757.58 1.733.868 2.662 1 1.84.256 3.464-.51 5.158-1.146 1.973-.74 4.052-1.69 5.798-2.877 1.29-.88 2.297-2.782 4.035-2.773.48 1.954-2.337 2.43-1.497 4.327.484 1.095.765 1.675.36 2.918-.432 1.318-.286 2.51-.503 3.85-.217 1.355-.797 2.604-.987 3.978-.196 1.436-.295 2.885-.396 4.332-.194 2.936-.783 5.85-.866 8.78-.08 2.862-.552 5.675-.598 8.547-.045 3.093-.16 6.172.007 9.264.318 5.827.912 12.063 3.65 17.31 2.245 4.306 5.905 8.064 11.18 7.274 5.792-.867 8.404-6.035 9.88-11.184.846-2.957.99-11.426.24-17.133zM149.07 65.35c.913-2.117 1.432-4.78 3.164-6.418h.254c.175 2.868-.852 6.172-2.312 8.633-.84 1.416-2.064 5.46-3.87 5.864.313-2.858 1.64-5.478 2.765-8.08zm-110.8 44.387c-1.56 1.4-6.638 4.55-7.6 5.115-.53.312-1.13.7-1.855.436.193-.712.6-1.137 1.038-1.607 1.014-1.094 7.26-7.28 7.873-7.832 2.31-2.057 4.802-5.08 7.73-6.575l.13-.054.123.053c.17 4.074-4.728 8.032-7.44 10.464zm67.195-22.564c-.17-2.956 2.062-4.57 3.274-6.555.208-.036.22.12.38.122-.138 1.42-1.662 6.553-3.655 6.433zm14.885-5.1c.177-2.018 2.057-3.46 2.057-3.46.92.832-2.233 5.473-2.057 3.46zm29.31 71.058c-3.358 4.193-7.817 1.89-10.216-1.996-1.24-2.01-1.84-4.357-2.25-6.66-.46-2.61-.993-5.392-1.007-8.036-.058-10.722 1.07-21.496 2.558-32.122.287-2.05.748-4.113 1.263-5.668-.028-.107.048-.12.125-.127 1.32-.076 3.436 3.87 4.07 4.89.728 1.15 1.5 2.282 2.172 3.464.516.915.658 1.98 1.227 2.863 1.256 1.942 1.886 4.368 2.484 6.59.708 2.612 1.497 5.165 1.894 7.85.786 5.338 1.138 10.74 1.278 16.125.113 4.2-.92 9.483-3.597 12.83z" fill-rule="evenodd"/></svg>
